<?xml version="1.0" encoding="utf-8"?>
<!-- Generator: Adobe Illustrator 24.0.2, SVG Export Plug-In . SVG Version: 6.00 Build 0)  -->
<svg version="1.1" id="圖層_1" xmlns="http://www.w3.org/2000/svg" xmlns:xlink="http://www.w3.org/1999/xlink" x="0px" y="0px"
	 viewBox="0 0 100 100" style="enable-background:new 0 0 100 100;" xml:space="preserve">
<path d="M93.5,1.2c2.5,0,4.6,2,4.6,4.6v38.4c0,2.5-2,4.6-4.7,4.6c-2.5,0-4.6-2-4.6-4.6V17l-44,44c-1.9,1.9-4.8,1.8-6.5,0
	c-1.8-1.9-1.9-4.7,0-6.5l44-44H55.1c-2.5,0.1-4.7-2-4.7-4.6c0-2.6,2-4.7,4.6-4.7H93.5z M29.8,5.2c2.3-1,5,1.2,5.4,3.7
	c0.5,2.5-1.4,4.4-3.7,5.5c-17.1,7.8-21.6,28-21.6,34.9c0,22,17.8,39.8,39.7,39.8c10,0,33.8-5.9,37.9-24.1c0.6-2.5,3.1-4.1,5.6-3.5
	c2.5,0.6,4.1,3.1,3.6,5.7c-5.2,22.5-34.4,31.4-47,31.4c-27.1,0-49-22.1-49-49.2C0.7,37.3,7.1,14.6,29.8,5.2z"/>
</svg>
