<?xml version="1.0" encoding="utf-8"?>
<!-- Generator: Adobe Illustrator 24.0.1, SVG Export Plug-In . SVG Version: 6.00 Build 0)  -->
<svg version="1.1" id="圖層_1" xmlns="http://www.w3.org/2000/svg" xmlns:xlink="http://www.w3.org/1999/xlink" x="0px" y="0px"
	 viewBox="0 0 100 100" style="enable-background:new 0 0 100 100;" xml:space="preserve">
<style type="text/css">
	.st0{fill-rule:evenodd;clip-rule:evenodd;fill:#231815;}
</style>
<title>pano</title>
<g id="註解">
	<path class="st0" d="M18.1,62.4h7.4l10-20.1v-4.2H17.1v5.6h11.1v0.1L18.1,62.4z M40.4,55.4l-3.4,3v4.1h18.5v-5.6h-8.7v-0.1l2.5-1.9
		c3-2.3,5.8-5.6,5.8-9.4c0-4.8-3.5-7.8-9.2-7.8c-3.1,0-6.1,0.9-8.6,2.6l1.9,4.8c1.5-1.2,3.4-1.9,5.4-2c2.5,0,3.7,1.3,3.7,3
		C48.1,48.6,45.5,51.1,40.4,55.4z M56.7,50.3c0,6.4,2.7,12.5,9.8,12.5c6.7,0,9.8-5.4,9.8-12.6c0-6.2-2.5-12.5-9.8-12.5
		C59.5,37.7,56.7,43.7,56.7,50.3L56.7,50.3z M66.5,42.8c1.8,0,2.9,2.3,2.9,7.5s-1.1,7.5-2.8,7.5s-3-2.2-3-7.5S64.7,42.8,66.5,42.8
		L66.5,42.8z M74.6,30.2c0.1-2.9-2.2-5.2-5-5.3s-5.2,2.2-5.3,5c-0.1,2.9,2.2,5.2,5,5.3c0,0,0.1,0,0.1,0
		C72.2,35.3,74.6,33.1,74.6,30.2C74.6,30.2,74.6,30.2,74.6,30.2L74.6,30.2z M67.2,30.2c0-1.2,0.9-2.3,2.2-2.3c1.2,0,2.3,0.9,2.3,2.2
		c0,1.2-0.9,2.3-2.2,2.3c0,0-0.1,0-0.1,0C68.2,32.4,67.3,31.4,67.2,30.2L67.2,30.2z M98.1,30.6L85.7,26c-0.7-0.3-1.5-0.3-2.2,0
		c-0.5,0.2-0.9,0.6-1.2,1.1c-0.3,0.3-0.5,0.7-0.6,1.1l-4.6,11.5c-0.6,1.5,0.2,3.1,1.6,3.7c0,0,0,0,0.1,0c0.3,0.1,0.7,0.2,1.1,0.2
		c1.2,0,2.3-0.7,2.8-1.8l2.1-5.4c3.2,8.4,3.4,17.7,0.5,26.2c-3.5,10.1-10.8,18.3-20.4,22.9c-9.7,4.7-20.8,5.5-31.1,2.1
		c-10.2-3.2-18.6-10.3-23.5-19.8C5.4,58.4,4.6,47.4,8,37.5c3.5-10.1,10.8-18.3,20.4-22.9c9.7-4.7,20.8-5.5,31-2.1
		c6.6,2.1,12.5,5.8,17.2,10.8c1.1,1.2,3,1.3,4.2,0.2c1.2-1,1.3-2.7,0.4-3.9c0-0.1-0.1-0.1-0.2-0.2C75.6,13.7,68.9,9.5,61.4,7
		c-11.7-3.8-24.5-3-35.6,2.5c-11,5.2-19.4,14.7-23.4,26.2c-3.9,11.4-3,23.9,2.5,34.6c5.6,10.9,15.3,19.1,27,22.7
		c11.7,3.8,24.5,3,35.6-2.5c11-5.3,19.4-14.7,23.3-26.2c3.4-9.9,3.2-20.8-0.7-30.5L96,36c1.5,0.6,3.2-0.2,3.8-1.6
		c0.6-1.4-0.1-3-1.5-3.6C98.2,30.7,98.1,30.7,98.1,30.6L98.1,30.6z"/>
</g>
</svg>
