<svg viewBox="0 0 286 50" xmlns="http://www.w3.org/2000/svg" xmlns:xlink="http://www.w3.org/1999/xlink"><linearGradient id="a" gradientUnits="userSpaceOnUse" x1="5.99" x2="44.01" y1="25" y2="25"><stop offset="0" stop-color="#f1304a"/><stop offset="1" stop-color="#db301a"/></linearGradient><linearGradient id="b" gradientUnits="userSpaceOnUse" x1="-11.19" x2="38.71" y1="16.25" y2="16.25"><stop offset="0" stop-color="#303030"/><stop offset="1" stop-color="#404040"/></linearGradient><linearGradient id="c" gradientUnits="userSpaceOnUse" x1="-11.19" x2="38.71" y1="13.89" y2="13.89"><stop offset="0" stop-color="#303030"/><stop offset="1" stop-color="#a9a9a9"/></linearGradient><linearGradient id="d" gradientUnits="userSpaceOnUse" x1="20.47" x2="20.47" y1="-20.41" y2="11.08"><stop offset="0" stop-color="#6f6f6f"/><stop offset="1" stop-color="#383838"/></linearGradient><linearGradient id="e" x1="24.87" x2="9.65" xlink:href="#c" y1="5.9" y2="5.9"/><linearGradient id="f" gradientUnits="userSpaceOnUse" x1="20.48" x2="39.68" y1="3.66" y2="14.74"><stop offset="0" stop-color="#a9a9a9"/><stop offset="1" stop-color="#303030"/></linearGradient><linearGradient id="g" x1="31.56" x2="54.38" xlink:href="#c" y1="9.16" y2="9.16"/><linearGradient id="h" gradientUnits="userSpaceOnUse" x1="38.71" x2="54.38" y1="17.28" y2="17.28"><stop offset="0" stop-color="#303030"/><stop offset="1" stop-color="#303030"/></linearGradient><linearGradient id="i" x1="3.87" x2="19.85" xlink:href="#c" y1="30.18" y2="30.18"/><linearGradient id="j" x1="-11.19" x2="6.84" xlink:href="#f" y1="26.52" y2="26.52"/><linearGradient id="k" gradientUnits="userSpaceOnUse" x1="15.78" x2="4.14" y1="42.99" y2="31.35"><stop offset="0" stop-color="#e4e4e4"/><stop offset="1" stop-color="#a9a9a9"/></linearGradient><linearGradient id="l" x1="-11.19" x2="3.87" xlink:href="#c" y1="34.04" y2="34.04"/><linearGradient id="m" x1="3.02" x2="-9.15" xlink:href="#c" y1="30.77" y2="42.94"/><linearGradient id="n" gradientUnits="userSpaceOnUse" x1="25.57" x2="6.86" y1="43.45" y2="43.45"><stop offset=".46" stop-color="#fff"/><stop offset=".47" stop-color="#fcfcfc"/><stop offset=".57" stop-color="#d8d8d8"/><stop offset=".68" stop-color="#bdbdbd"/><stop offset=".78" stop-color="#a9a9a9"/><stop offset=".89" stop-color="#9d9d9d"/><stop offset="1" stop-color="#999"/></linearGradient><linearGradient id="o" x1="40.43" x2="73.1" xlink:href="#k" y1="39.73" y2="39.73"/><linearGradient id="p" x1="11.86" x2="110.53" xlink:href="#f" y1="43.4" y2="43.4"/><linearGradient id="q" x1="11.86" x2="110.53" xlink:href="#c" y1="27.67" y2="27.67"/><linearGradient id="r" x1="6.84" x2="16.2" xlink:href="#h" y1="12.2" y2="12.2"/><linearGradient id="s" gradientUnits="userSpaceOnUse" x1="44.36" x2="44.36" y1="45.1" y2="16.41"><stop offset=".24" stop-color="#e4e4e4"/><stop offset=".41" stop-color="#ccc"/><stop offset=".61" stop-color="#b9b9b9"/><stop offset=".8" stop-color="#adadad"/><stop offset="1" stop-color="#a9a9a9"/></linearGradient><linearGradient id="t" gradientUnits="userSpaceOnUse" x1="-11.19" x2="6.84" y1="21.04" y2="21.04"><stop offset="0" stop-color="#404040"/><stop offset="1" stop-color="#303030"/></linearGradient><linearGradient id="u" x1="6.84" x2="38.71" xlink:href="#h" y1="27.67" y2="27.67"/><linearGradient id="v" gradientUnits="userSpaceOnUse" x1="11.86" x2="40.43" y1="43.12" y2="43.12"><stop offset="0" stop-color="#a9a9a9"/><stop offset="1" stop-color="#e4e4e4"/></linearGradient><linearGradient id="w" x1="40.43" x2="73.1" xlink:href="#c" y1="32.91" y2="32.91"/><circle cx="25" cy="25" fill="#fff" opacity=".3" r="25"/><circle cx="25" cy="25" fill="url(#a)" r="19.01"/><g opacity=".2"><path d="m1.17 17.41 5.67 4z" fill="#303030"/><path d="m16.2 11.08-9.36 10.35 31.87-5.02z" fill="#303030"/><path d="m16.2 11.08-9.36 10.35 31.87-5.02z" fill="url(#b)"/><path d="m8.35 6.35a25 25 0 0 0 -7.18 11.06l5.66 4z" fill="#303030"/><path d="m8.35 6.35a25 25 0 0 0 -7.18 11.06l5.66 4z" fill="url(#c)"/><path d="m24.74 0a25 25 0 0 0 -5.69.71l-2.85 10.37z" fill="#303030"/><path d="m24.74 0a25 25 0 0 0 -5.69.71l-2.85 10.37z" fill="url(#d)"/><path d="m19.05.71a24.83 24.83 0 0 0 -5.86 2.29l3 8.12z" fill="#303030"/><path d="m19.05.71a24.83 24.83 0 0 0 -5.86 2.29l3 8.12z" fill="url(#e)"/><path d="m38.71 16.41-4.1-14.49a24.92 24.92 0 0 0 -9.61-1.92h-.26l-8.54 11.08z" fill="#303030"/><path d="m38.71 16.41-4.1-14.49a24.92 24.92 0 0 0 -9.61-1.92h-.26l-8.54 11.08z" fill="url(#f)"/><path d="m46.34 12a25.09 25.09 0 0 0 -11.73-10.08l4.1 14.49z" fill="#303030"/><path d="m46.34 12a25.09 25.09 0 0 0 -11.73-10.08l4.1 14.49z" fill="url(#g)"/><path d="m49.88 22.59a24.84 24.84 0 0 0 -3.54-10.59l-7.62 4.44z" fill="#303030"/><path d="m49.88 22.59a24.84 24.84 0 0 0 -3.54-10.59l-7.62 4.44z" fill="url(#h)"/><path d="m3.87 31.62 15.98 7.3-13.01-17.49z" fill="#303030"/><path d="m3.87 31.62 15.98 7.3-13.01-17.49z" fill="url(#i)"/><path d="m6.84 21.43-6.84 3.23v.34a25 25 0 0 0 .8 6.28l3.08.34z" fill="#303030"/><path d="m6.84 21.43-6.84 3.23v.34a25 25 0 0 0 .8 6.28l3.08.34z" fill="url(#j)"/><path d="m3.87 31.62-1.1 4.83a25.06 25.06 0 0 0 4.09 5.75l13-3.27z" fill="#303030"/><path d="m3.87 31.62-1.1 4.83a25.06 25.06 0 0 0 4.09 5.75l13-3.27z" fill="url(#k)"/><path d="m1.37 33.17a24.85 24.85 0 0 0 1.41 3.28l1.1-4.83z" fill="#303030"/><path d="m1.37 33.17a24.85 24.85 0 0 0 1.41 3.28l1.1-4.83z" fill="url(#l)"/><path d="m.8 31.28q.25 1 .57 1.89l2.51-1.54z" fill="#303030"/><path d="m.8 31.28q.25 1 .57 1.89l2.51-1.54z" fill="url(#m)"/><path d="m6.86 42.2a25.05 25.05 0 0 0 8.28 5.8l4.71-9.05z" fill="#303030"/><path d="m6.86 42.2a25.05 25.05 0 0 0 8.28 5.8l4.71-9.05z" fill="url(#n)"/><path d="m40.43 44.68a25.08 25.08 0 0 0 7.57-9.9l-7.59 2z" fill="#303030"/><path d="m40.43 44.68a25.08 25.08 0 0 0 7.57-9.9l-7.59 2z" fill="url(#o)"/><path d="m40.43 36.79-20.66 12.66a25.1 25.1 0 0 0 5.23.55 24.89 24.89 0 0 0 15.43-5.32z" fill="#303030"/><path d="m40.43 36.79-20.66 12.66a25.1 25.1 0 0 0 5.23.55 24.89 24.89 0 0 0 15.43-5.32z" fill="url(#p)"/><path d="m19.85 38.92 20.57-2.12-1.71-20.39z" fill="#303030"/><path d="m19.85 38.92 20.57-2.12-1.71-20.39z" fill="url(#q)"/><path d="m16.2 11.08-3.01-8.08a25.06 25.06 0 0 0 -4.84 3.35l-1.51 15.08z" fill="#303030"/><path d="m16.2 11.08-3.01-8.08a25.06 25.06 0 0 0 -4.84 3.35l-1.51 15.08z" fill="url(#r)"/><path d="m40.43 36.79 9.24-7.79a25.18 25.18 0 0 0 .33-4c0-.81 0-1.62-.12-2.41l-11.17-6.18z" fill="#303030"/><path d="m40.43 36.79 9.24-7.79a25.18 25.18 0 0 0 .33-4c0-.81 0-1.62-.12-2.41l-11.17-6.18z" fill="url(#s)"/><path d="m1.17 17.43a25 25 0 0 0 -1.17 7.23l6.83-3.23z" fill="#303030"/><path d="m1.17 17.43a25 25 0 0 0 -1.17 7.23l6.83-3.23z" fill="url(#t)"/><path d="m6.84 21.43 13.01 17.49 18.86-22.51z" fill="#303030"/><path d="m6.84 21.43 13.01 17.49 18.86-22.51z" fill="url(#u)"/><path d="m19.85 38.92-4.71 9.08a24.81 24.81 0 0 0 4.62 1.47l20.67-12.68z" fill="#303030"/><path d="m19.85 38.92-4.71 9.08a24.81 24.81 0 0 0 4.62 1.47l20.67-12.68z" fill="url(#v)"/><path d="m48 34.78a24.81 24.81 0 0 0 1.67-5.78l-9.25 7.76z" fill="#303030"/><path d="m48 34.78a24.81 24.81 0 0 0 1.67-5.78l-9.25 7.76z" fill="url(#w)"/></g><path d="m23 34.07c.31-1.28-1.54-2.05-.8-2.49s2.3 1.27 3.33 2a9.6 9.6 0 0 0 4.47 1.59 6.74 6.74 0 0 0 6.57-5.59 12 12 0 0 0 -.9-7.29 13.47 13.47 0 0 0 -6.67-6.15c-1.25-.56.08-1.71-2.81-1.39-6.52.71-9.58 3.38-11.62 6.1a10.79 10.79 0 0 0 -1.9 7.77c.33 2.76 2.81 6.38 6.24 6.68 2.41.24 3.83-.17 4.09-1.23z" fill="#fff"/><path d="m146.61 21.79v-16.46a.67.67 0 0 1 .67-.67h7.85a1.36 1.36 0 0 1 1.36 1.34v16.7h-2.1v6.22a.63.63 0 0 0 1.19.16 4.86 4.86 0 0 0 .42-2.08l.27.16a3 3 0 0 1 1.47 3.58 1.58 1.58 0 0 1 -.38.71 2.34 2.34 0 0 1 -1.73.62h-1.23a2.63 2.63 0 0 1 -1.85-.49 1.89 1.89 0 0 1 -.62-1.36v-7.5h-1.36a24.55 24.55 0 0 1 -.74 4.95 9.79 9.79 0 0 1 -2 3.22 9.62 9.62 0 0 1 -1.53 1.17 1.52 1.52 0 0 1 -2.18-.59 4.28 4.28 0 0 0 -.74-1.08h-8.77a.61.61 0 0 0 -.61.61v1h-.15a2.69 2.69 0 0 1 -2.69-2.69v-7.83l-1.21 1.52q-.24-.51-.47-1a3.11 3.11 0 0 1 .37-3.37 26.58 26.58 0 0 0 2.58-3.69h-1.73a.62.62 0 0 1 -.62-.62v-3.95a.52.52 0 0 1 .51-.52h5.64a.52.52 0 0 1 .51.52v4.56h-2.59a1.34 1.34 0 0 1 .27 1.71l-.39.64h3.58l1.23-2.28a.62.62 0 0 1 -.62-.62v-4.01a.52.52 0 0 1 .51-.52h5.9a.62.62 0 0 1 .62.62v4.53h-4.81l.65.39a.6.6 0 0 1 .15.89q-.62.76-.8.95h4a.8.8 0 0 1 .8.8v.37a.8.8 0 0 1 -.8.8h-3.7a.8.8 0 0 0 -.8.8.8.8 0 0 0 .8.8h2.84a.8.8 0 0 1 .8.8v.25a.8.8 0 0 1 -.8.8h-2.84a.8.8 0 0 0 -.8.8.8.8 0 0 0 .8.8h2.84a.8.8 0 0 1 .8.8v.12a.8.8 0 0 1 -.8.8h-2.84a.8.8 0 0 0 -.8.8v.49a.8.8 0 0 0 .8.8h3.58a.8.8 0 0 1 .8.8.27.27 0 0 0 .45.21 7.31 7.31 0 0 0 1.65-1.88 19.3 19.3 0 0 0 1.11-4.58h-.8a.93.93 0 0 1 -.92-.82zm-13.08-16.14v-1.23a.75.75 0 0 1 .75-.75h1a.75.75 0 0 1 .75.75v1.23h3.33v-1.23a.75.75 0 0 1 .75-.75h1.09a.75.75 0 0 1 .75.75v1.23h1.6a2.22 2.22 0 0 1 2.22 2.23h-3.83v1.35h-2.59v-1.36h-3.35v1.36h-2.47v-1.36h-3a1.11 1.11 0 0 1 -1.11-1.11 1.11 1.11 0 0 1 1.11-1.11zm1.11 7.16v-.58a.52.52 0 0 0 -.51-.52h-1.32a.52.52 0 0 0 -.51.52v.58a.52.52 0 0 0 .51.52h1.32a.52.52 0 0 0 .51-.53zm2.59 7.26a.8.8 0 0 0 -.8-.8h-1.6a.8.8 0 0 0 -.8.8.8.8 0 0 0 .8.8h1.6a.8.8 0 0 0 .8-.81zm0 3.46a.8.8 0 0 0 -.8-.8h-1.6a.8.8 0 0 0 -.8.8.8.8 0 0 0 .8.8h1.6a.8.8 0 0 0 .8-.81zm0 3.84v-.49a.8.8 0 0 0 -.8-.8h-1.6a.8.8 0 0 0 -.8.8v.49a.8.8 0 0 0 .8.8h1.6a.8.8 0 0 0 .8-.81zm5.77-14.57v-.58a.52.52 0 0 0 -.51-.52h-1.49a.52.52 0 0 0 -.51.52v.58a.52.52 0 0 0 .51.52h1.56a.52.52 0 0 0 .44-.52zm10.9-3.5v-1.25a.67.67 0 0 0 -.67-.67h-3.35a.67.67 0 0 0 -.67.67v1.25a.67.67 0 0 0 .67.67h3.35a.67.67 0 0 0 .67-.67zm0 5.07v-1.5a.67.67 0 0 0 -.67-.67h-3.35a.67.67 0 0 0 -.67.67v1.5a.67.67 0 0 0 .67.67h3.35a.67.67 0 0 0 .67-.66zm0 5.32v-1.74a.67.67 0 0 0 -.67-.67h-3.35a.67.67 0 0 0 -.67.67v1.75a.67.67 0 0 0 .67.67h3.35a.67.67 0 0 0 .67-.67z" fill="#383838"/><path d="m173.06 14.06v-8.6a1.54 1.54 0 0 1 1.54-1.55 1.54 1.54 0 0 1 1.54 1.55v8.6h11a1.36 1.36 0 0 1 1.36 1.36 1.36 1.36 0 0 1 -1.36 1.36h-7.14a.54.54 0 0 0 -.54.54v10.84a.83.83 0 0 0 .25.62 4.71 4.71 0 0 0 1.6.12h2.35a2.83 2.83 0 0 0 2.72-2.85c0-.18 0-.31 0-.36a3.11 3.11 0 0 1 1.6 4.53c-.89 1.1-2.39 1.24-3.7 1.24h-2.47q-3.83 0-4.44-.49-1-.62-1-2.6v-11.59h-3.83a29.15 29.15 0 0 1 -1.36 7.79 9.39 9.39 0 0 1 -2.72 4.08q-1.61 1.61-6.54 3.71a3.12 3.12 0 0 1 1.61-3.94 10.11 10.11 0 0 0 2.1-1.23 7.91 7.91 0 0 0 2.47-2.72 9.52 9.52 0 0 0 1.26-3.47 30 30 0 0 0 .33-3.46.7.7 0 0 0 -.7-.74h-6.54a1.36 1.36 0 0 1 -1.36-1.36 1.36 1.36 0 0 1 1.36-1.36zm-2.72-2.47a2.86 2.86 0 0 1 -3.9-.64q-.83-1.09-1.83-2.28a1.29 1.29 0 0 1 .23-1.87l.16-.12a1.28 1.28 0 0 1 1.71.19 54.76 54.76 0 0 1 3.64 4.71zm8 0q1.87-2.18 4-5a1.28 1.28 0 0 1 1.86-.2l.51.44a1.29 1.29 0 0 1 .08 1.87q-1.08 1.11-2.23 2.33a3.35 3.35 0 0 1 -4.18.56z" fill="#383838"/><path d="m193 14.17a2.34 2.34 0 0 1 2.34-2.35h2.86a1.21 1.21 0 0 1 1.17 1.18v5.83a12.6 12.6 0 0 0 7.77 2.22h10.11q1.72 0 3.45-.12a5.27 5.27 0 0 0 -.37.81 2.37 2.37 0 0 1 -2.22 1.54h-3.82v1.36h6.16a2.22 2.22 0 0 1 -2.22 2.22h-3.94v2.59c0 .91-.17 1.48-.49 1.73a6.34 6.34 0 0 1 -2.24.84 2.68 2.68 0 0 1 -3-1.41 8.16 8.16 0 0 0 -.68-1.16h3.2a.51.51 0 0 0 .37-.12v-2.44h-11.22c.49.32 1.43 1 2.39 1.78a2.54 2.54 0 0 1 .23 3.79c-.67-.59-2.53-2.12-3.06-2.58a2.08 2.08 0 0 1 -.17-3h-4.68a2.22 2.22 0 0 1 -2.22-2.22h18.74v-1.35h-3.08a27.77 27.77 0 0 1 -6.16-.62 25.46 25.46 0 0 1 -3.7-1.85l-4.56 3.09-.39-.59a2.13 2.13 0 0 1 .77-3.06q1-.55 2.09-1.17v-4.94zm6.24-7.17-1.73 2.22q-2-1.73-3.7-3l.47-.59a1.94 1.94 0 0 1 2.64-.36q1.34.99 2.32 1.73zm15.76-.86h3.08a2.1 2.1 0 0 1 2.1 2.1h-9.18l-.25 1.36h5.36a1.67 1.67 0 0 1 1.67 1.67v6.78a1.67 1.67 0 0 1 -1.67 1.67h-11.7a1.67 1.67 0 0 1 -1.67-1.67v-6.78a1.67 1.67 0 0 1 1.67-1.67h3.75l.25-1.36h-7.89a2.1 2.1 0 0 1 2.1-2.1h2.84-.06a1.37 1.37 0 0 1 .07-2.2l.85-.6 2.39 2.84h3.28l1.73-3 .76.42a1.76 1.76 0 0 1 .52 2.54zm-.12 5.75a.56.56 0 0 0 -.55-.56h-8.63a.56.56 0 0 0 -.55.56.56.56 0 0 0 .55.56h8.63a.56.56 0 0 0 .57-.57zm0 2.59v-.12a.56.56 0 0 0 -.55-.56h-8.63a.56.56 0 0 0 -.55.56v.12a.56.56 0 0 0 .55.56h8.63a.56.56 0 0 0 .57-.56zm0 2.84v-.37a.56.56 0 0 0 -.55-.56h-8.63a.56.56 0 0 0 -.55.56v.37a.56.56 0 0 0 .55.56h8.63a.56.56 0 0 0 .57-.56z" fill="#383838"/><path d="m228.58 26.51v-8.51h18.23a1 1 0 0 1 1 1v7.51a1 1 0 0 1 -1 1h-4.81v1.61a.71.71 0 0 0 .12.49c.08 0 .25.12.49.37a5.55 5.55 0 0 0 1.6.12h3.08a3.55 3.55 0 0 0 1.36-.12.88.88 0 0 0 .74-.74q.12-.37.37-1.61a6.85 6.85 0 0 0 .94.51 2 2 0 0 1 .8 3.06 2.17 2.17 0 0 1 -1.11.62 10.53 10.53 0 0 1 -2.47.12h-5.05a9.92 9.92 0 0 1 -2.71-.25 2 2 0 0 1 -.86-1.85v-2.33h-3.57a9.06 9.06 0 0 1 -5.92 4.49 19.25 19.25 0 0 1 -2 .28 4 4 0 0 1 -3.66-1.64q-.22-.3-.47-.61a42.73 42.73 0 0 0 4.56-.12 10.94 10.94 0 0 0 2.47-.74 10.84 10.84 0 0 0 2.1-1.61h-3.19a1 1 0 0 1 -1.04-1.05zm13.55-22.51.5.17-.74 1.24h8.38a2 2 0 0 1 2 2h-11.49l-1 1.24h9.31a.93.93 0 0 1 .92.93.93.93 0 0 1 -.92.93h-8.2a1.36 1.36 0 0 1 -1.36-1.36 2.07 2.07 0 0 1 -2.59.33 4.72 4.72 0 0 0 -.62-.33v3.85a.86.86 0 0 1 -.86.86h-2.57a.51.51 0 0 0 -.51.51v.34a.51.51 0 0 0 .51.51h4.17a1.89 1.89 0 0 1 -1.89 1.89h-9.58a1 1 0 0 1 -1-1v-10.85a1 1 0 0 1 1-1h9.5a2 2 0 0 1 2 2h-4.17a.51.51 0 0 0 -.51.51v.46a.51.51 0 0 0 .51.51h2.57a.86.86 0 0 1 .86.86 16.85 16.85 0 0 0 2.1-2.35q.31-.47.65-1.07a2.55 2.55 0 0 1 3.03-1.18zm-12.07 3.23v-.46a.51.51 0 0 0 -.51-.51h-1.81a.51.51 0 0 0 -.51.51v.46a.51.51 0 0 0 .51.51h1.81a.51.51 0 0 0 .51-.51zm4.07 4.28v-1.4a.64.64 0 0 0 -.64-.64h-5.76a.51.51 0 0 0 -.51.51v1.66a.51.51 0 0 0 .51.51h5.76a.64.64 0 0 0 .64-.63zm-4.07 3.21v-.34a.51.51 0 0 0 -.51-.51h-1.81a.51.51 0 0 0 -.51.51v.34a.51.51 0 0 0 .51.51h1.81a.51.51 0 0 0 .51-.5zm14.94 5.38a.62.62 0 0 0 -.62-.62h-12.47a.62.62 0 0 0 -.62.62.62.62 0 0 0 .62.62h12.45a.62.62 0 0 0 .64-.62zm0 2.47a.62.62 0 0 0 -.62-.62h-12.47a.62.62 0 0 0 -.62.62.62.62 0 0 0 .62.62h12.45a.62.62 0 0 0 .64-.62zm0 2.72v-.29a.62.62 0 0 0 -.62-.62h-12.47a.62.62 0 0 0 -.62.62v.25a.62.62 0 0 0 .62.62h12.45a.62.62 0 0 0 .64-.58zm-6.9-8.4v-4.59a.72.72 0 0 1 .72-.72h12.11a.72.72 0 0 1 .72.72v3.86a.72.72 0 0 1 -.72.72zm3.9-2.46v-.43a.72.72 0 0 0 -.72-.72h-.4a.72.72 0 0 0 -.72.72v.4a.72.72 0 0 0 .72.72h.4a.72.72 0 0 0 .72-.69zm3.57 0v-.43a.72.72 0 0 0 -.72-.72h-.28a.72.72 0 0 0 -.72.72v.4a.72.72 0 0 0 .72.72h.28a.72.72 0 0 0 .74-.69zm3.82 0v-.43a.72.72 0 0 0 -.72-.72h-.28a.72.72 0 0 0 -.72.72v.4a.72.72 0 0 0 .72.72h.28a.72.72 0 0 0 .74-.69z" fill="#383838"/><path d="m264.6 17.35-.6-2.22a2.34 2.34 0 0 1 3 1.54c.29 1 .76 3 .94 4l-.85.27a1.39 1.39 0 0 1 -1.79-1.07l-.06-.31-1.84.12v12.32a2.59 2.59 0 0 1 -2.58-2.59v-9.47l-1.58.14a2.6 2.6 0 0 1 -2.81-2.24v-.24h1.83l2.35-3.6a20.74 20.74 0 0 0 -2.91-2.11 1.7 1.7 0 0 1 -.44-2.47 38.18 38.18 0 0 0 3.89-5.91 2.81 2.81 0 0 1 1.13 3.76 24.59 24.59 0 0 1 -2.45 2.91l2.17 1.26a33.49 33.49 0 0 0 2.63-4.49 3 3 0 0 1 1.12 4.05l-4.27 6.44c.82.04 2.14-.01 3.12-.09zm-5.53 10.94a1.1 1.1 0 0 1 -1.34.84q-.74-.18-1.35-.31a40.48 40.48 0 0 0 1.23-7.27l.27.07a2.55 2.55 0 0 1 1.9 2.85q-.3 1.85-.71 3.81zm8.11-1.57-.28.05a2 2 0 0 1 -2.38-1.6q-.22-1.35-.41-3.13a2.29 2.29 0 0 1 2.62 1.96q.2 1.29.45 2.72zm.61 4v-24.07a1.75 1.75 0 0 1 1.75-1.76h12.73a1.75 1.75 0 0 1 1.73 1.76v22.78a1.92 1.92 0 0 1 -.74 1.73 3.52 3.52 0 0 1 -1.3.58 2.24 2.24 0 0 1 -2.76-1.4l-.37-1h2.17a.51.51 0 0 0 .37-.12v-21a.8.8 0 0 0 -.8-.81h-9.34a.8.8 0 0 0 -.8.81v22.5a1.29 1.29 0 0 1 -1.34 1.28 1.29 1.29 0 0 1 -1.29-1.28zm11.54-19.47-.85 2.15h2.09v.42a1.92 1.92 0 0 1 -1.92 1.92h-1.65v3h3.44v.24a1.85 1.85 0 0 1 -1.85 1.85h-3.77a.46.46 0 0 0 -.46.46v3.71a1 1 0 0 0 .12.62c.16.17.29.25.37.25h5.47a2.34 2.34 0 0 1 -2.32 2.33h-2.34a6.52 6.52 0 0 1 -3.13-.49 1.87 1.87 0 0 1 -.74-1.48v-6.3a1.21 1.21 0 0 1 1.21-1.23h1.58v-3h-3.2v-.52a1.82 1.82 0 0 1 1.81-1.82h2.81a27.67 27.67 0 0 0 1-3.08q.49-1.48.74-2.47a2.59 2.59 0 0 1 1.6 3.45zm-7.73-2.17a2.49 2.49 0 0 1 3.27 1.52c.14.4.52 1.45.66 1.93l-.84.31a1.47 1.47 0 0 1 -1.92-1 17.59 17.59 0 0 0 -1.16-2.75z" fill="#383838"/><path d="m68.24 9.55v-5a1.41 1.41 0 0 1 1.4-1.41h.13a1.41 1.41 0 0 1 1.4 1.41v5h.95a1.61 1.61 0 0 1 1.61 1.61v.95h-2.56v2.69a30.91 30.91 0 0 0 2.42 2.2 1.56 1.56 0 0 1 .31 2.09 1.55 1.55 0 0 1 -2.35.24l-.38-.33v13.85h-.31a2.63 2.63 0 0 1 -2.63-2.63v-10.94a51.47 51.47 0 0 1 -3.23 5.72l-.4-.68a4.25 4.25 0 0 1 0-4.37 29.84 29.84 0 0 0 1.43-2.64q1.4-3.2 2.17-5.25h-2.77a1.28 1.28 0 0 1 -1.28-1.28 1.28 1.28 0 0 1 1.28-1.28zm10.76 8.71v-13.57a1.41 1.41 0 0 1 1.4-1.41 1.41 1.41 0 0 1 1.4 1.41v11.77a42 42 0 0 1 -.38 6.66 14.73 14.73 0 0 1 -1.42 3.88 10.46 10.46 0 0 1 -2 2.69 20.82 20.82 0 0 1 -4 2.94 3.28 3.28 0 0 1 .93-4.26 10.21 10.21 0 0 0 2-1.86 11.26 11.26 0 0 0 1.92-5.12l-2.3 1.15q-1.28.64-2.43 1.28a3 3 0 0 1 1.57-3.91q1.52-.74 3.31-1.65zm-3.4-7.95a1.26 1.26 0 0 1 1.58.82q.62 2 1 3.54a2.41 2.41 0 0 1 -3-1.58q-.17-.54-.39-1.17a1.26 1.26 0 0 1 .81-1.61zm8.34 19v-24.5a1.41 1.41 0 0 1 1.4-1.41h.13a1.41 1.41 0 0 1 1.4 1.41v12.93q2 1.28 3.7 2.37a3 3 0 0 1 .91 4.11l-.17.28q-2.81-2.43-4.47-3.58v7.81a.73.73 0 0 0 .26.51c.17.17.3.26.38.26h1.92q.89 0 1-.51a18.2 18.2 0 0 0 .64-2.3l.88.54a2.73 2.73 0 0 1 .94 3.87 1.77 1.77 0 0 1 -.42.46 5.47 5.47 0 0 1 -3.07.64h-2a3.52 3.52 0 0 1 -2.55-.77 2.71 2.71 0 0 1 -.87-2.16zm8-16.64-1.22 1.33a2.52 2.52 0 0 1 -3.43.12l-.15-.12q1.36-1.63 2.45-3.2a1.46 1.46 0 0 1 2.1-.31 1.47 1.47 0 0 1 .21 2.14z" fill="#383838"/><path d="m98 31v-25.72a1.32 1.32 0 0 1 1.32-1.28h23.92a1.32 1.32 0 0 1 1.32 1.33v25.67a1.32 1.32 0 0 1 -1.32 1.33h-23.92a1.32 1.32 0 0 1 -1.32-1.33zm23.5-2.47v-20.82a1.32 1.32 0 0 0 -1.32-1.33h-17.8a1.32 1.32 0 0 0 -1.32 1.33v20.87a1.32 1.32 0 0 0 1.32 1.33h17.79a1.32 1.32 0 0 0 1.33-1.33zm-17.25-7.53v-2.72a1.35 1.35 0 0 1 1.35-1.35h10.84a1.35 1.35 0 0 1 1.35 1.35v3.9a1.31 1.31 0 0 1 1.75 0l1.18 1.11-3.07 1.92a4.88 4.88 0 0 0 .52.32 2.47 2.47 0 0 1 .95 3.42l-.06.1a21.09 21.09 0 0 1 -3.7-1.92q-1.28-1-2.81-2.43v4.3h-2.94v-4.52a38 38 0 0 1 -6.61 3.95l-.09-.14a2.29 2.29 0 0 1 .94-3.32 22.29 22.29 0 0 0 4.4-2.67h-2.65a1.35 1.35 0 0 1 -1.35-1.3zm5.36-10.8v-1.67a1.47 1.47 0 0 1 1.47-1.47 1.47 1.47 0 0 1 1.47 1.47v1.62h5a1 1 0 0 1 1 1 1 1 0 0 1 -1 1h-5v1.43h7a1 1 0 0 1 1 1v.13a1 1 0 0 1 -1 1h-16.45a1 1 0 0 1 -1-1v-.13a1 1 0 0 1 1-1h6.51v-1.38h-4.34a1 1 0 0 1 -1-1 1 1 0 0 1 1-1zm5.87 9.46a.9.9 0 0 0 -.89-.9h-7a.9.9 0 0 0 -.89.9.9.9 0 0 0 .89.9h7a.9.9 0 0 0 .9-.94zm0 4.41 2.17-1.79h-4.21a14.75 14.75 0 0 0 2.05 1.72z" fill="#383838"/><g fill="#545454"><path d="m73.13 43.22h-3.13v3.24h-1.14v-7.32h4.74v.79h-3.6v2.53h3.15z"/><path d="m75 39.14h1v.86h-1zm1 2v5.28h-1v-5.24z"/><path d="m78.61 43.86v2.6h-1v-5.28h1v.94a2.83 2.83 0 0 1 .82-.79 1.87 1.87 0 0 1 1-.26 4.36 4.36 0 0 1 .56.08v.85a1.75 1.75 0 0 0 -.78-.15 1.57 1.57 0 0 0 -1.12.45 2.18 2.18 0 0 0 -.48 1.56z"/><path d="m81.5 45.18h1a.51.51 0 0 0 .3.49 1.71 1.71 0 0 0 .95.23 1.89 1.89 0 0 0 1-.3q.39-.3.39-.57a.58.58 0 0 0 -.22-.45 6.65 6.65 0 0 0 -1.42-.49 3.61 3.61 0 0 1 -1.5-.68 1.06 1.06 0 0 1 -.39-.83 1.29 1.29 0 0 1 .65-1.06 2.67 2.67 0 0 1 1.64-.45 2.49 2.49 0 0 1 1.6.38 1.07 1.07 0 0 1 .52.87h-1.02a.36.36 0 0 0 -.22-.34 1.79 1.79 0 0 0 -.86-.19 1.71 1.71 0 0 0 -.92.21.64.64 0 0 0 -.35.53.52.52 0 0 0 .26.42 7.41 7.41 0 0 0 1.73.53 2.74 2.74 0 0 1 1.21.57 1.3 1.3 0 0 1 .35.83 1.57 1.57 0 0 1 -.65 1.25 2.65 2.65 0 0 1 -1.77.49 2.94 2.94 0 0 1 -1.68-.42 1.21 1.21 0 0 1 -.6-1.02z"/><path d="m91.16 45.71v.75a4.33 4.33 0 0 1 -1.12.15 1.81 1.81 0 0 1 -1.42-.49 1.86 1.86 0 0 1 -.52-1.47v-2.71h-1v-.75h1v-1.25h1v1.25h1.77v.75h-1.78v2.45a1.66 1.66 0 0 0 .3 1.21 1.08 1.08 0 0 0 .86.3 5.44 5.44 0 0 0 .91-.19z"/><path d="m95.22 44.8h1.08a.87.87 0 0 0 .35.79 2.57 2.57 0 0 0 1.42.34 1.85 1.85 0 0 0 1.25-.38 1.2 1.2 0 0 0 .43-.94.91.91 0 0 0 -.3-.72 7.09 7.09 0 0 0 -1.81-.83 4 4 0 0 1 -1.64-.94 1.68 1.68 0 0 1 -.52-1.21 1.74 1.74 0 0 1 .73-1.43 3.32 3.32 0 0 1 2.07-.57 3.22 3.22 0 0 1 1.81.42 1.2 1.2 0 0 1 .56 1.06h-1.16a.54.54 0 0 0 -.3-.53 2.35 2.35 0 0 0 -1.08-.19 2 2 0 0 0 -1.11.33 1.06 1.06 0 0 0 -.39.83 1.13 1.13 0 0 0 .43.87 12.91 12.91 0 0 0 1.81.79 4.36 4.36 0 0 1 1.6.94 1.71 1.71 0 0 1 .43 1.17 1.92 1.92 0 0 1 -.69 1.51 3.15 3.15 0 0 1 -2.11.6 3.68 3.68 0 0 1 -2.16-.53 1.57 1.57 0 0 1 -.7-1.38z"/><path d="m105.79 45.71v.75a4.33 4.33 0 0 1 -1.12.15 1.81 1.81 0 0 1 -1.42-.49 1.86 1.86 0 0 1 -.52-1.47v-2.71h-1v-.75h1v-1.25h1v1.25h1.77v.75h-1.77v2.45a1.66 1.66 0 0 0 .3 1.21 1.08 1.08 0 0 0 .86.3 5.44 5.44 0 0 0 .9-.19z"/><path d="m109.54 46.61a2.78 2.78 0 0 1 -2-.75 2.56 2.56 0 0 1 -.82-2 2.64 2.64 0 0 1 .78-2 2.94 2.94 0 0 1 2.07-.72 2.87 2.87 0 0 1 2 .72 2.64 2.64 0 0 1 .78 2 2.71 2.71 0 0 1 -.78 2 2.79 2.79 0 0 1 -2.03.75zm0-.72a1.64 1.64 0 0 0 1.25-.57 2.07 2.07 0 0 0 .52-1.51 2 2 0 0 0 -.52-1.51 1.69 1.69 0 0 0 -1.25-.53 1.74 1.74 0 0 0 -1.29.53 2 2 0 0 0 -.52 1.51 2.07 2.07 0 0 0 .52 1.51 1.68 1.68 0 0 0 1.29.58z"/><path d="m114.59 45.56v2.94h-1v-7.32h1v.94a1.9 1.9 0 0 1 .73-.75 2.68 2.68 0 0 1 1.21-.3 2.35 2.35 0 0 1 1.77.72 3.35 3.35 0 0 1 0 4.07 2.43 2.43 0 0 1 -1.81.75 2 2 0 0 1 -1.08-.26 2.38 2.38 0 0 1 -.82-.79zm0-1.74a2.24 2.24 0 0 0 .47 1.55 1.65 1.65 0 0 0 2.42 0 2.18 2.18 0 0 0 .47-1.51 2.45 2.45 0 0 0 -.43-1.62 1.58 1.58 0 0 0 -1.25-.49 1.51 1.51 0 0 0 -1.16.53 2 2 0 0 0 -.52 1.54z"/><path d="m123.35 39.14h1v.86h-1zm1 2v5.28h-1v-5.24z"/><path d="m127 43.86v2.6h-1v-5.28h1v.94a2.19 2.19 0 0 1 1.94-1.06 2.16 2.16 0 0 1 1.47.45 2.1 2.1 0 0 1 .52 1.58v3.36h-1v-3q0-1.06-.3-1.32a1.33 1.33 0 0 0 -.91-.3 1.47 1.47 0 0 0 -1.17.49 2 2 0 0 0 -.55 1.54z"/><path d="m141.56 39.9h-2.8v6.56h-1.08v-6.56h-2.85v-.75h6.73z"/><path d="m147.3 46.46h-1.08a2.46 2.46 0 0 1 -.13-.72 10.22 10.22 0 0 1 -1 .64 2.2 2.2 0 0 1 -1 .23 1.83 1.83 0 0 1 -1.25-.42 1.3 1.3 0 0 1 -.47-1 1.28 1.28 0 0 1 .82-1.25 9.46 9.46 0 0 1 2.93-.75v-.6a.64.64 0 0 0 -.26-.6 1.58 1.58 0 0 0 -1-.26 1.72 1.72 0 0 0 -.95.23.86.86 0 0 0 -.35.64h-1.12a1.35 1.35 0 0 1 .69-1.06 3 3 0 0 1 1.77-.49 3.57 3.57 0 0 1 1.34.23 1.4 1.4 0 0 1 .73.53 2.17 2.17 0 0 1 .17 1.06v2.08a5.59 5.59 0 0 0 .16 1.51zm-1.21-2.15v-.49a9.09 9.09 0 0 0 -2.29.68.79.79 0 0 0 -.39.68.54.54 0 0 0 .3.53 1 1 0 0 0 .69.23 1.72 1.72 0 0 0 1.17-.45 1.48 1.48 0 0 0 .52-1.18z"/><path d="m148.63 39.14h1v.86h-1zm1 2v5.28h-1v-5.24z"/><path d="m156.14 46.46-1.42-4.19-1.38 4.19h-1l-1.73-5.28h1l1.21 4.07 1.34-4.07h1l1.42 4.07 1.42-4.07h.95l-1.73 5.28z"/><path d="m164.64 46.46h-1.08a2.46 2.46 0 0 1 -.13-.72 10.22 10.22 0 0 1 -1 .64 2.2 2.2 0 0 1 -1 .23 1.83 1.83 0 0 1 -1.25-.42 1.3 1.3 0 0 1 -.47-1 1.28 1.28 0 0 1 .82-1.25 9.46 9.46 0 0 1 2.93-.75v-.6a.64.64 0 0 0 -.26-.6 1.58 1.58 0 0 0 -1-.26 1.72 1.72 0 0 0 -.95.23.86.86 0 0 0 -.35.64h-1.12a1.35 1.35 0 0 1 .69-1.06 3 3 0 0 1 1.77-.49 3.57 3.57 0 0 1 1.34.23 1.4 1.4 0 0 1 .73.53 2.17 2.17 0 0 1 .17 1.06v2.08a5.59 5.59 0 0 0 .16 1.51zm-1.21-2.15v-.49a9.09 9.09 0 0 0 -2.29.68.79.79 0 0 0 -.39.68.54.54 0 0 0 .3.53 1 1 0 0 0 .69.23 1.72 1.72 0 0 0 1.17-.45 1.48 1.48 0 0 0 .52-1.18z"/><path d="m167 43.86v2.6h-1v-5.28h1v.94a2.19 2.19 0 0 1 2-1.05 2.16 2.16 0 0 1 1.47.45 2.1 2.1 0 0 1 .52 1.58v3.36h-1v-3q0-1.06-.3-1.32a1.33 1.33 0 0 0 -.91-.3 1.47 1.47 0 0 0 -1.17.49 2 2 0 0 0 -.61 1.53z"/></g></svg>